<svg xmlns="http://www.w3.org/2000/svg" width="600" height="358" viewBox="0 0 600 358" role="img" aria-label="BlockRadixSort reranking">

    <defs>
      <marker id="arrowhead" markerWidth="8" markerHeight="8" refX="7" refY="4" orient="auto">
        <path d="M0,0 L8,4 L0,8 Z" fill="#6b7280" />
      </marker>
    </defs>
  <rect width="600" height="358" fill="#ffffff" />
  <text x="24" y="26" font-family="system-ui, sans-serif" font-size="20" font-weight="700" fill="#111827">BlockRadixSort</text>
  <text x="24" y="44" font-family="system-ui, sans-serif" font-size="13" font-weight="600" fill="#374151">Before</text>
  <text x="320" y="44" font-family="system-ui, sans-serif" font-size="13" font-weight="600" fill="#374151">After</text>
  <path d="M 232.1 66 C 254.1 66, 288 262, 310 262" fill="none" stroke="#b45309" stroke-width="1.4" marker-end="url(#arrowhead)" />
<path d="M 232.1 94 C 254.1 94, 288 290, 310 290" fill="none" stroke="#b45309" stroke-width="1.4" marker-end="url(#arrowhead)" />
<path d="M 232.1 122 C 254.1 122, 288 318, 310 318" fill="none" stroke="#b45309" stroke-width="1.4" marker-end="url(#arrowhead)" />
<path d="M 260.6 150 C 282.6 150, 288 206, 310 206" fill="none" stroke="#b45309" stroke-width="1.4" marker-end="url(#arrowhead)" />

    <rect x="24" y="56" width="198.1" height="20" rx="6" fill="#f8fafc" stroke="#cbd5e1" />
    <text x="32" y="70" font-family="ui-monospace, SFMono-Regular, Menlo, monospace" font-size="11" fill="#0f172a">1. cub::BlockRadixSort::BlockDimX</text>

    <rect x="24" y="84" width="198.1" height="20" rx="6" fill="#f8fafc" stroke="#cbd5e1" />
    <text x="32" y="98" font-family="ui-monospace, SFMono-Regular, Menlo, monospace" font-size="11" fill="#0f172a">2. cub::BlockRadixSort::BlockDimY</text>

    <rect x="24" y="112" width="198.1" height="20" rx="6" fill="#f8fafc" stroke="#cbd5e1" />
    <text x="32" y="126" font-family="ui-monospace, SFMono-Regular, Menlo, monospace" font-size="11" fill="#0f172a">3. cub::BlockRadixSort::BlockDimZ</text>

    <rect x="24" y="140" width="226.6" height="20" rx="6" fill="#f8fafc" stroke="#cbd5e1" />
    <text x="32" y="154" font-family="ui-monospace, SFMono-Regular, Menlo, monospace" font-size="11" fill="#0f172a">4. cub::BlockRadixSort::BlockRadixSort</text>

    <rect x="24" y="168" width="250" height="20" rx="6" fill="#f8fafc" stroke="#cbd5e1" />
    <text x="32" y="182" font-family="ui-monospace, SFMono-Regular, Menlo, monospace" font-size="11" fill="#0f172a">5. cub::BlockRadixSort::BlockRadixSort::temp…</text>

    <rect x="24" y="196" width="249.4" height="20" rx="6" fill="#f8fafc" stroke="#cbd5e1" />
    <text x="32" y="210" font-family="ui-monospace, SFMono-Regular, Menlo, monospace" font-size="11" fill="#0f172a">6. cub::BlockRadixSort::InnerScanAlgorithm</text>

    <rect x="24" y="224" width="226.6" height="20" rx="6" fill="#f8fafc" stroke="#cbd5e1" />
    <text x="32" y="238" font-family="ui-monospace, SFMono-Regular, Menlo, monospace" font-size="11" fill="#0f172a">7. cub::BlockRadixSort::ItemsPerThread</text>

    <rect x="24" y="252" width="169.6" height="20" rx="6" fill="#f8fafc" stroke="#cbd5e1" />
    <text x="32" y="266" font-family="ui-monospace, SFMono-Regular, Menlo, monospace" font-size="11" fill="#0f172a">8. cub::BlockRadixSort::KeyT</text>

    <rect x="24" y="280" width="238" height="20" rx="6" fill="#f8fafc" stroke="#cbd5e1" />
    <text x="32" y="294" font-family="ui-monospace, SFMono-Regular, Menlo, monospace" font-size="11" fill="#0f172a">9. cub::BlockRadixSort::MemoizeOuterScan</text>

    <rect x="24" y="308" width="203.8" height="20" rx="6" fill="#f8fafc" stroke="#cbd5e1" />
    <text x="32" y="322" font-family="ui-monospace, SFMono-Regular, Menlo, monospace" font-size="11" fill="#0f172a">10. cub::BlockRadixSort::RadixBits</text>

    <rect x="320" y="56" width="169.6" height="20" rx="6" fill="#f8fafc" stroke="#cbd5e1" />
    <text x="328" y="70" font-family="ui-monospace, SFMono-Regular, Menlo, monospace" font-size="11" fill="#0f172a">1. cub::BlockRadixSort::Sort</text>

    <rect x="320" y="84" width="250" height="20" rx="6" fill="#f8fafc" stroke="#cbd5e1" />
    <text x="328" y="98" font-family="ui-monospace, SFMono-Regular, Menlo, monospace" font-size="11" fill="#0f172a">2. cub::BlockRadixSort::SortBlockedToStriped</text>

    <rect x="320" y="112" width="226.6" height="20" rx="6" fill="#f8fafc" stroke="#cbd5e1" />
    <text x="328" y="126" font-family="ui-monospace, SFMono-Regular, Menlo, monospace" font-size="11" fill="#0f172a">3. cub::BlockRadixSort::SortDescending</text>

    <rect x="320" y="140" width="250" height="20" rx="6" fill="#f8fafc" stroke="#cbd5e1" />
    <text x="328" y="154" font-family="ui-monospace, SFMono-Regular, Menlo, monospace" font-size="11" fill="#0f172a">4. cub::BlockRadixSort::SortDescendingBlocke…</text>

    <rect x="320" y="168" width="209.5" height="20" rx="6" fill="#f8fafc" stroke="#cbd5e1" />
    <text x="328" y="182" font-family="ui-monospace, SFMono-Regular, Menlo, monospace" font-size="11" fill="#0f172a">5. cub::BlockRadixSort::TempStorage</text>

    <rect x="320" y="196" width="226.6" height="20" rx="6" fill="#f8fafc" stroke="#cbd5e1" />
    <text x="328" y="210" font-family="ui-monospace, SFMono-Regular, Menlo, monospace" font-size="11" fill="#0f172a">6. cub::BlockRadixSort::BlockRadixSort</text>

    <rect x="320" y="224" width="135.4" height="20" rx="6" fill="#f8fafc" stroke="#cbd5e1" />
    <text x="328" y="238" font-family="ui-monospace, SFMono-Regular, Menlo, monospace" font-size="11" fill="#0f172a">7. cub::BlockMergeSort</text>

    <rect x="320" y="252" width="198.1" height="20" rx="6" fill="#f8fafc" stroke="#cbd5e1" />
    <text x="328" y="266" font-family="ui-monospace, SFMono-Regular, Menlo, monospace" font-size="11" fill="#0f172a">8. cub::BlockRadixSort::BlockDimX</text>

    <rect x="320" y="280" width="198.1" height="20" rx="6" fill="#f8fafc" stroke="#cbd5e1" />
    <text x="328" y="294" font-family="ui-monospace, SFMono-Regular, Menlo, monospace" font-size="11" fill="#0f172a">9. cub::BlockRadixSort::BlockDimY</text>

    <rect x="320" y="308" width="203.8" height="20" rx="6" fill="#f8fafc" stroke="#cbd5e1" />
    <text x="328" y="322" font-family="ui-monospace, SFMono-Regular, Menlo, monospace" font-size="11" fill="#0f172a">10. cub::BlockRadixSort::BlockDimZ</text>
</svg>
