<svg xmlns="http://www.w3.org/2000/svg" width="600" height="358" viewBox="0 0 600 358" role="img" aria-label="iterator reranking">

    <defs>
      <marker id="arrowhead" markerWidth="8" markerHeight="8" refX="7" refY="4" orient="auto">
        <path d="M0,0 L8,4 L0,8 Z" fill="#6b7280" />
      </marker>
    </defs>
  <rect width="600" height="358" fill="#ffffff" />
  <text x="24" y="26" font-family="system-ui, sans-serif" font-size="20" font-weight="700" fill="#111827">iterator</text>
  <text x="24" y="44" font-family="system-ui, sans-serif" font-size="13" font-weight="600" fill="#374151">Before</text>
  <text x="320" y="44" font-family="system-ui, sans-serif" font-size="13" font-weight="600" fill="#374151">After</text>


    <rect x="24" y="56" width="152.5" height="20" rx="6" fill="#f8fafc" stroke="#cbd5e1" />
    <text x="32" y="70" font-family="ui-monospace, SFMono-Regular, Menlo, monospace" font-size="11" fill="#0f172a">1. cuda.compute.iterators</text>

    <rect x="24" y="84" width="130" height="20" rx="6" fill="#f8fafc" stroke="#cbd5e1" />
    <text x="32" y="98" font-family="ui-monospace, SFMono-Regular, Menlo, monospace" font-size="11" fill="#0f172a">2. Buffer</text>

    <rect x="24" y="112" width="226.6" height="20" rx="6" fill="#f8fafc" stroke="#cbd5e1" />
    <text x="32" y="126" font-family="ui-monospace, SFMono-Regular, Menlo, monospace" font-size="11" fill="#0f172a">3. CCCL 2.x ‐ CCCL 3.0 migration guide</text>

    <rect x="24" y="140" width="175.3" height="20" rx="6" fill="#f8fafc" stroke="#cbd5e1" />
    <text x="32" y="154" font-family="ui-monospace, SFMono-Regular, Menlo, monospace" font-size="11" fill="#0f172a">4. cuda.compute API Reference</text>

    <rect x="24" y="168" width="250" height="20" rx="6" fill="#f8fafc" stroke="#cbd5e1" />
    <text x="32" y="182" font-family="ui-monospace, SFMono-Regular, Menlo, monospace" font-size="11" fill="#0f172a">5. cuda.compute: Parallel Computing Primitiv…</text>

    <rect x="24" y="196" width="130" height="20" rx="6" fill="#f8fafc" stroke="#cbd5e1" />
    <text x="32" y="210" font-family="ui-monospace, SFMono-Regular, Menlo, monospace" font-size="11" fill="#0f172a">6. Fancy Iterators</text>

    <rect x="24" y="224" width="130" height="20" rx="6" fill="#f8fafc" stroke="#cbd5e1" />
    <text x="32" y="238" font-family="ui-monospace, SFMono-Regular, Menlo, monospace" font-size="11" fill="#0f172a">7. Fancy Iterators</text>

    <rect x="24" y="252" width="152.5" height="20" rx="6" fill="#f8fafc" stroke="#cbd5e1" />
    <text x="32" y="266" font-family="ui-monospace, SFMono-Regular, Menlo, monospace" font-size="11" fill="#0f172a">8. Iterator Tag Utilities</text>

    <rect x="24" y="280" width="130" height="20" rx="6" fill="#f8fafc" stroke="#cbd5e1" />
    <text x="32" y="294" font-family="ui-monospace, SFMono-Regular, Menlo, monospace" font-size="11" fill="#0f172a">9. Iterator Tags</text>

    <rect x="24" y="308" width="130" height="20" rx="6" fill="#f8fafc" stroke="#cbd5e1" />
    <text x="32" y="322" font-family="ui-monospace, SFMono-Regular, Menlo, monospace" font-size="11" fill="#0f172a">10. Iterator traits</text>

    <rect x="320" y="56" width="198.1" height="20" rx="6" fill="#f8fafc" stroke="#cbd5e1" />
    <text x="328" y="70" font-family="ui-monospace, SFMono-Regular, Menlo, monospace" font-size="11" fill="#0f172a">1. thrust::iterator_system&lt;void*&gt;</text>

    <rect x="320" y="84" width="198.1" height="20" rx="6" fill="#f8fafc" stroke="#cbd5e1" />
    <text x="328" y="98" font-family="ui-monospace, SFMono-Regular, Menlo, monospace" font-size="11" fill="#0f172a">2. thrust::make_constant_iterator</text>

    <rect x="320" y="112" width="198.1" height="20" rx="6" fill="#f8fafc" stroke="#cbd5e1" />
    <text x="328" y="126" font-family="ui-monospace, SFMono-Regular, Menlo, monospace" font-size="11" fill="#0f172a">3. thrust::make_counting_iterator</text>

    <rect x="320" y="140" width="192.4" height="20" rx="6" fill="#f8fafc" stroke="#cbd5e1" />
    <text x="328" y="154" font-family="ui-monospace, SFMono-Regular, Menlo, monospace" font-size="11" fill="#0f172a">4. thrust::make_discard_iterator</text>

    <rect x="320" y="168" width="215.20000000000002" height="20" rx="6" fill="#f8fafc" stroke="#cbd5e1" />
    <text x="328" y="182" font-family="ui-monospace, SFMono-Regular, Menlo, monospace" font-size="11" fill="#0f172a">5. thrust::make_permutation_iterator</text>

    <rect x="320" y="196" width="192.4" height="20" rx="6" fill="#f8fafc" stroke="#cbd5e1" />
    <text x="328" y="210" font-family="ui-monospace, SFMono-Regular, Menlo, monospace" font-size="11" fill="#0f172a">6. thrust::make_shuffle_iterator</text>

    <rect x="320" y="224" width="238" height="20" rx="6" fill="#f8fafc" stroke="#cbd5e1" />
    <text x="328" y="238" font-family="ui-monospace, SFMono-Regular, Menlo, monospace" font-size="11" fill="#0f172a">7. thrust::make_tabulate_output_iterator</text>

    <rect x="320" y="252" width="243.70000000000002" height="20" rx="6" fill="#f8fafc" stroke="#cbd5e1" />
    <text x="328" y="266" font-family="ui-monospace, SFMono-Regular, Menlo, monospace" font-size="11" fill="#0f172a">8. thrust::make_transform_output_iterator</text>

    <rect x="320" y="280" width="232.3" height="20" rx="6" fill="#f8fafc" stroke="#cbd5e1" />
    <text x="328" y="294" font-family="ui-monospace, SFMono-Regular, Menlo, monospace" font-size="11" fill="#0f172a">9. thrust::iterator_system&lt;const void*&gt;</text>

    <rect x="320" y="308" width="158.20000000000002" height="20" rx="6" fill="#f8fafc" stroke="#cbd5e1" />
    <text x="328" y="322" font-family="ui-monospace, SFMono-Regular, Menlo, monospace" font-size="11" fill="#0f172a">10. cuda::shuffle_iterator</text>
</svg>
