<svg xmlns="http://www.w3.org/2000/svg" width="600" height="358" viewBox="0 0 600 358" role="img" aria-label="memory resource reranking">

    <defs>
      <marker id="arrowhead" markerWidth="8" markerHeight="8" refX="7" refY="4" orient="auto">
        <path d="M0,0 L8,4 L0,8 Z" fill="#6b7280" />
      </marker>
    </defs>
  <rect width="600" height="358" fill="#ffffff" />
  <text x="24" y="26" font-family="system-ui, sans-serif" font-size="20" font-weight="700" fill="#111827">memory resource</text>
  <text x="24" y="44" font-family="system-ui, sans-serif" font-size="13" font-weight="600" fill="#374151">Before</text>
  <text x="320" y="44" font-family="system-ui, sans-serif" font-size="13" font-weight="600" fill="#374151">After</text>


    <rect x="24" y="56" width="130" height="20" rx="6" fill="#f8fafc" stroke="#cbd5e1" />
    <text x="32" y="70" font-family="ui-monospace, SFMono-Regular, Menlo, monospace" font-size="11" fill="#0f172a">1. Buffer</text>

    <rect x="24" y="84" width="163.9" height="20" rx="6" fill="#f8fafc" stroke="#cbd5e1" />
    <text x="32" y="98" font-family="ui-monospace, SFMono-Regular, Menlo, monospace" font-size="11" fill="#0f172a">2. cuda::device_memory_pool</text>

    <rect x="24" y="112" width="250" height="20" rx="6" fill="#f8fafc" stroke="#cbd5e1" />
    <text x="32" y="126" font-family="ui-monospace, SFMono-Regular, Menlo, monospace" font-size="11" fill="#0f172a">3. cuda::experimental::uninitialized_buffer</text>

    <rect x="24" y="140" width="169.6" height="20" rx="6" fill="#f8fafc" stroke="#cbd5e1" />
    <text x="32" y="154" font-family="ui-monospace, SFMono-Regular, Menlo, monospace" font-size="11" fill="#0f172a">4. cuda::managed_memory_pool</text>

    <rect x="24" y="168" width="192.4" height="20" rx="6" fill="#f8fafc" stroke="#cbd5e1" />
    <text x="32" y="182" font-family="ui-monospace, SFMono-Regular, Menlo, monospace" font-size="11" fill="#0f172a">5. cuda::managed_memory_pool_ref</text>

    <rect x="24" y="196" width="186.70000000000002" height="20" rx="6" fill="#f8fafc" stroke="#cbd5e1" />
    <text x="32" y="210" font-family="ui-monospace, SFMono-Regular, Menlo, monospace" font-size="11" fill="#0f172a">6. cuda::mr::basic_any_resource</text>

    <rect x="24" y="224" width="169.6" height="20" rx="6" fill="#f8fafc" stroke="#cbd5e1" />
    <text x="32" y="238" font-family="ui-monospace, SFMono-Regular, Menlo, monospace" font-size="11" fill="#0f172a">7. cuda::mr::shared_resource</text>

    <rect x="24" y="252" width="163.9" height="20" rx="6" fill="#f8fafc" stroke="#cbd5e1" />
    <text x="32" y="266" font-family="ui-monospace, SFMono-Regular, Menlo, monospace" font-size="11" fill="#0f172a">8. cuda::pinned_memory_pool</text>

    <rect x="24" y="280" width="130" height="20" rx="6" fill="#f8fafc" stroke="#cbd5e1" />
    <text x="32" y="294" font-family="ui-monospace, SFMono-Regular, Menlo, monospace" font-size="11" fill="#0f172a">9. CUDASTF</text>

    <rect x="24" y="308" width="130" height="20" rx="6" fill="#f8fafc" stroke="#cbd5e1" />
    <text x="32" y="322" font-family="ui-monospace, SFMono-Regular, Menlo, monospace" font-size="11" fill="#0f172a">10. Legacy resources</text>

    <rect x="320" y="56" width="192.4" height="20" rx="6" fill="#f8fafc" stroke="#cbd5e1" />
    <text x="328" y="70" font-family="ui-monospace, SFMono-Regular, Menlo, monospace" font-size="11" fill="#0f172a">1. cuda::buffer::memory_resource</text>

    <rect x="320" y="84" width="250" height="20" rx="6" fill="#f8fafc" stroke="#cbd5e1" />
    <text x="328" y="98" font-family="ui-monospace, SFMono-Regular, Menlo, monospace" font-size="11" fill="#0f172a">2. cuda::experimental::uninitialized_buffer:…</text>

    <rect x="320" y="112" width="198.1" height="20" rx="6" fill="#f8fafc" stroke="#cbd5e1" />
    <text x="328" y="126" font-family="ui-monospace, SFMono-Regular, Menlo, monospace" font-size="11" fill="#0f172a">3. thrust::device_memory_resource</text>

    <rect x="320" y="140" width="186.70000000000002" height="20" rx="6" fill="#f8fafc" stroke="#cbd5e1" />
    <text x="328" y="154" font-family="ui-monospace, SFMono-Regular, Menlo, monospace" font-size="11" fill="#0f172a">4. thrust::host_memory_resource</text>

    <rect x="320" y="168" width="250" height="20" rx="6" fill="#f8fafc" stroke="#cbd5e1" />
    <text x="328" y="182" font-family="ui-monospace, SFMono-Regular, Menlo, monospace" font-size="11" fill="#0f172a">5. thrust::universal_host_pinned_memory_reso…</text>

    <rect x="320" y="196" width="215.20000000000002" height="20" rx="6" fill="#f8fafc" stroke="#cbd5e1" />
    <text x="328" y="210" font-family="ui-monospace, SFMono-Regular, Menlo, monospace" font-size="11" fill="#0f172a">6. thrust::universal_memory_resource</text>

    <rect x="320" y="224" width="250" height="20" rx="6" fill="#f8fafc" stroke="#cbd5e1" />
    <text x="328" y="238" font-family="ui-monospace, SFMono-Regular, Menlo, monospace" font-size="11" fill="#0f172a">7. cuda::mr::legacy_managed_memory_resource:…</text>

    <rect x="320" y="252" width="250" height="20" rx="6" fill="#f8fafc" stroke="#cbd5e1" />
    <text x="328" y="266" font-family="ui-monospace, SFMono-Regular, Menlo, monospace" font-size="11" fill="#0f172a">8. cuda::mr::legacy_managed_memory_resource:…</text>

    <rect x="320" y="280" width="250" height="20" rx="6" fill="#f8fafc" stroke="#cbd5e1" />
    <text x="328" y="294" font-family="ui-monospace, SFMono-Regular, Menlo, monospace" font-size="11" fill="#0f172a">9. cuda::mr::legacy_managed_memory_resource:…</text>

    <rect x="320" y="308" width="250" height="20" rx="6" fill="#f8fafc" stroke="#cbd5e1" />
    <text x="328" y="322" font-family="ui-monospace, SFMono-Regular, Menlo, monospace" font-size="11" fill="#0f172a">10. cuda::mr::legacy_pinned_memory_resource::…</text>
</svg>
